<svg class="svg-image" role="img"  xmlns="http://www.w3.org/2000/svg" viewBox="0 0 125 24"><path d="M0 12v12h23.94V12H0Zm25.27 0v12H49.2V12H25.27Zm25.26 0v12h23.94V12H50.53Zm25.27 0v12h23.93V12H75.8Zm25.26 0v12H125V12h-23.94Z" fill="#f49000"></path><path d="M0 0v12h23.94V0H0Zm25.27 0v12H49.2V0H25.27Zm25.26 0v12h23.94V0H50.53ZM75.8 0v12h23.93V0H75.8Zm25.26 0v12H125V0h-23.94Z" fill="#f49000"></path><path fill-rule="evenodd" clip-rule="evenodd" d="M10.29 11.55V6H7.38v12h2.9v-5.55L13.36 18h3.2l-3.32-6 3.33-6h-3.21l-3.06 5.55ZM34.55 18l.52-1.73h4.24l.52 1.73h3.2L39.08 6h-3.7l-3.94 12h3.1Zm1.24-4.08 1.4-4.48 1.4 4.48h-2.8ZM63.98 18h-2.9v-5.29L57.13 6h3.47l1.93 3.69L64.44 6h3.42l-3.88 6.71V18Zm21.1 0 .52-1.73h4.24l.52 1.73h3.2L89.61 6h-3.7l-3.94 12h3.1Zm1.24-4.08 1.4-4.48 1.4 4.48h-2.8Zm25.03-2.37V6h-2.9v12h2.9v-5.55l3.06 5.55h3.21l-3.33-6 3.33-6h-3.2l-3.07 5.55Z" fill="#fff"></path></svg>